<?xml version="1.0" standalone="no"?>
<!DOCTYPE svg PUBLIC "-//W3C//DTD SVG 1.0//EN"
        "http://www.w3.org/TR/2001/REC-SVG-20010904/DTD/svg10.dtd">
<svg xmlns="http://www.w3.org/2000/svg"
     width="100.000000pt" height="100.000000pt" viewBox="0 0 100.000000 100.000000"
     preserveAspectRatio="xMidYMid meet">
<metadata>
Created by potrace 1.11, written by Peter Selinger 2001-2013
</metadata>
<g transform="translate(0.000000,100.000000) scale(0.100000,-0.100000)"
fill="#000000" stroke="none">
<path d="M395 896 c-55 -41 -122 -91 -150 -111 -163 -118 -202 -146 -222 -162
l-23 -18 76 -230 c41 -127 76 -234 78 -240 1 -5 10 -34 20 -62 l18 -53 307 0
308 0 36 108 c19 59 60 184 90 277 31 94 58 177 62 186 4 12 -17 33 -82 79
-48 35 -161 117 -250 182 -89 65 -163 118 -165 118 -2 0 -48 -34 -103 -74z"/>
</g>
</svg>
